<svg width="396" height="300" viewBox="0 0 396 300" fill="none" xmlns="http://www.w3.org/2000/svg">
<g id="business-card-vector">
<path id="business-top-bar" d="M185.453 27.2024H127.257C125.261 27.2024 123.636 25.6813 123.636 23.8118C123.636 21.9422 125.261 20.4211 127.257 20.4211H185.453C187.449 20.4211 189.074 21.9422 189.074 23.8118C189.074 25.6813 187.449 27.2024 185.453 27.2024Z" fill="#E6E7E8"/>
<path id="Vector" d="M230.869 38.6785H127.257C125.261 38.6785 123.636 37.1574 123.636 35.2878C123.636 33.4183 125.261 31.8972 127.257 31.8972H230.869C232.866 31.8972 234.49 33.4183 234.49 35.2878C234.49 37.1574 232.866 38.6785 230.869 38.6785Z" fill="#E6E7E8"/>
<path id="Vector_2" d="M230.869 50.051H127.257C125.261 50.051 123.636 48.5299 123.636 46.6604C123.636 44.7909 125.261 43.2698 127.257 43.2698H230.869C232.866 43.2698 234.49 44.7909 234.49 46.6604C234.49 48.5299 232.866 50.051 230.869 50.051Z" fill="#E6E7E8"/>
<path id="business-colored-bar" d="M234.269 46.8939C234.269 48.6855 232.713 50.1432 230.799 50.1432H185.69C183.776 50.1432 182.22 48.6855 182.22 46.8939C182.22 45.1022 183.776 43.6445 185.69 43.6445H230.799C232.713 43.6445 234.269 45.1022 234.269 46.8939Z" fill="#6C63FF"/>
<g id="Group">
<g id="business-male-person-left-hand">
<path id="Vector_3" d="M31.1464 227.896C30.4597 225.657 29.2838 223.747 27.8837 222.384L22.797 200.671L11.7094 203.214L18.0631 224.967C17.6453 226.807 17.7289 229.004 18.4156 231.244C19.9844 236.359 24.106 239.756 27.6216 238.832C31.1371 237.907 32.7152 233.011 31.1464 227.896Z" fill="#FFB6B6"/>
<path id="Vector_4" d="M29.6125 85.4608C29.6125 85.4608 17.6368 85.0738 10.6968 92.3848C2.74576 101.48 -2.68916 137.118 1.39085 139.517L12.4451 213.022L28.2082 210.994L24.1626 122.799L29.6125 85.4608Z" fill="#152A77"/>
</g>
<path id="Vector_5" d="M110.459 209.361L107.59 299.073H66.3836L64.718 264.492L57.3963 299.073H13.2322L18.7408 239.626L24.4315 227.124L28.2832 218.652L110.459 209.361Z" fill="#2F2E41"/>
<path id="Vector_6" d="M77.7304 70.807L49.1031 69.1824L39.5606 80.5551C31.3192 82.2075 23.8753 84.3407 18.7407 87.8661C19.9692 121.924 17.2706 166.209 28.2832 174.786L18.5043 239.417C18.5043 239.417 22.4479 236.254 29.0354 237.371C31.3112 237.756 34.0585 242.557 36.855 242.848C58.3426 245.083 93.1878 242.785 110.459 209.361L103.755 160.976L105.49 90.3031C100.066 86.2883 93.323 83.6791 85.5379 82.1797L77.7304 70.807Z" fill="#152A77"/>
<g id="business-male-person-right-hand">
<path id="Vector_7" d="M132.843 51.0357C133.153 53.8521 132.759 56.5006 131.851 58.6241L136.619 85.2783L123.008 87.0321L119.637 59.8053C118.284 57.9004 117.32 55.3833 117.009 52.5669C116.3 46.1331 119.269 40.5746 123.641 40.1518C128.013 39.7289 132.133 44.6018 132.843 51.0357Z" fill="#FFB6B6"/>
<path id="Vector_8" d="M87.5914 92.3395C86.1664 94.3085 86.5634 96.5217 86.2231 99.1808C84.7787 110.469 107.88 143.827 123.864 147.667C125.961 148.171 127.156 150.29 129.273 150.716C135.545 151.978 141.384 147.317 141.046 141.318L136.704 64.3838L118.463 70.2099L119.63 110.153C119.514 101.878 111.4 93.4524 105.254 89.948C105.254 89.948 92.8043 85.1372 87.5914 92.3395Z" fill="#152A77"/>
</g>
<g id="business-male-person-head">
<path id="Vector_9" d="M66.3875 67.0802C80.314 67.0802 91.6036 56.5084 91.6036 43.4675C91.6036 30.4265 80.314 19.8547 66.3875 19.8547C52.4611 19.8547 41.1714 30.4265 41.1714 43.4675C41.1714 56.5084 52.4611 67.0802 66.3875 67.0802Z" fill="#FFB6B6"/>
<path id="Vector_10" d="M89.8753 26.1285C89.6585 26.1773 93.1947 22.9497 93.3453 22.8791C96.8153 21.2545 93.2499 37.1356 90.7428 36.6888C84.5749 35.5921 81.9118 33.4151 79.5175 38.8496C78.8495 40.3605 78.4331 42.0665 77.1319 43.1469C75.3448 44.6172 72.378 44.4953 70.9206 46.25C69.7495 47.6635 70.0878 49.743 70.9553 51.3352C71.8228 52.9355 73.1414 54.2921 73.9308 55.9249C74.8157 57.7608 71.042 63.6014 69.602 66.8833V66.8914L69.5934 66.9106C69.2108 67.7715 68.3015 65.2917 67.3415 65.0442C66.1927 64.748 64.5004 67.288 62.6707 66.8264C62.662 66.8264 62.6533 66.8183 62.6447 66.8183C60.901 66.3634 58.9578 65.876 57.032 65.3886H57.0233C51.6015 64.0076 50.2308 65.9897 49.9706 65.9329L46.6047 62.6348C45.4496 61.8472 45.5801 59.3047 44.7656 58.6218C44.0995 58.0634 42.4388 59.3538 41.9494 58.817C39.5496 56.1851 38.9974 53.5521 37.5827 48.3539C36.2902 43.6018 33.6096 29.3778 39.1182 28.736C44.3145 28.1268 40.5149 21.3519 45.7459 21.6038C45.4336 20.369 46.0148 19.0449 46.9604 18.1351C47.8972 17.2171 49.1464 16.6485 50.4043 16.1611C56.6069 13.7891 55.5746 11.7502 62.1155 13.1311C62.7661 12.2782 71.1091 10.0546 72.289 10.3389C72.3757 10.3551 70.4695 13.8216 75.1279 13.1311C74.9544 14.1303 77.4939 11.9636 77.7304 15.5681C82.6989 12.7759 85.373 19.4592 85.5379 20.4421C85.7547 21.6688 83.7768 21.0433 85.0954 21.2301C85.8762 21.3438 87.2121 22.8304 87.082 23.5696C87.6459 22.8547 88.2098 22.148 88.7823 21.4332C88.8864 21.4413 88.9818 21.4576 89.0859 21.4738C91.7231 21.9449 88.6997 30.0179 88.8083 27.5013C89.0078 22.8791 92.5038 25.5842 89.8753 26.1285Z" fill="#2F2E41"/>
</g>
</g>
<g id="Group 22">
<path id="business-female-person-side-hair" d="M327.807 21.2593C326.876 28.43 325.858 35.5909 324.754 42.7402C324.305 45.6439 323.831 48.5845 322.584 51.2758C321.732 53.1129 320.539 54.7904 319.353 56.4568C317.951 58.4259 316.527 60.4202 314.623 61.9768C312.719 63.5333 310.246 64.6263 307.727 64.4434C314.412 60.2293 318.905 53.1019 319.615 45.5848C319.949 42.0514 319.491 38.4995 319.403 34.9532C319.315 31.4069 319.632 27.7372 321.379 24.5899C323.127 21.4425 326.578 18.9231 330.365 19.0126L327.807 21.2593Z" fill="#2F2E41"/>
<g id="business-female-person-left-hand">
<path id="Vector_11" d="M260.054 174.2C254.615 178.331 247.929 179.052 245.121 175.811C242.314 172.569 244.448 166.593 249.887 162.461C252.268 160.653 254.888 159.498 257.317 159.043L280.601 141.808L289.005 152.212L265.16 168.098C264.183 170.229 262.435 172.391 260.054 174.2Z" fill="#A0616A"/>
<path id="Vector_12" d="M264.452 150.802L299.146 119.976L302.616 117.539C302.616 117.539 322.532 99.3697 327.689 98.9537C329.873 98.7778 332.057 99.2877 333.897 100.407C336.87 102.212 338.41 105.183 338.41 108.178C338.41 110.681 337.333 113.195 335.13 115.047L303.368 141.748L289.856 153.105L273.051 167.235L271.343 163.977L265.566 152.936L264.452 150.802Z" fill="#6C63FF"/>
</g>
<path id="Vector_13" d="M338.636 129.94L303.899 139.903C309.715 141.437 312.15 174.622 306.737 175.653C306.737 175.653 364.308 179.487 361.167 175.653C357.338 170.979 362.473 139.917 364.922 139.903L338.636 129.94Z" fill="#A0616A"/>
<path id="Vector_14" d="M384.859 299.047L381.823 264.734C381.823 252.46 380.973 241.371 379.611 231.485C374.154 191.803 360.474 171.462 360.474 171.462H309.292C309.222 171.535 309.153 171.592 309.084 171.665L309.075 171.673C296.999 183.558 290.719 213.443 287.925 231.485C286.598 240.072 286.06 245.977 286.06 245.977L281.055 287.634L284.672 299.047H314.453L313.985 296.602L333.148 231.485L333.382 230.689L333.59 231.485L351.357 299.047L384.859 299.047Z" fill="#2F2E41"/>
<path id="Vector_15" d="M310.341 110.146L321.156 89.7018L330.269 74.8489L337.639 67.8162H357.807L359.684 74.8489L370.95 80.7094L374.934 110.012L360.738 173.59C343.84 160.696 309.011 157.126 309.011 157.126L303.368 141.747L299.638 123.222L299.187 121.007L310.341 110.146Z" fill="#6C63FF"/>
<g id="business-female-person-right-hand">
<path id="Vector_16" d="M309.043 147.128C302.042 146.942 296.469 143.409 296.596 139.237C296.722 135.066 302.5 131.834 309.501 132.02C312.566 132.102 315.356 132.825 317.516 133.962L347.17 135.098L346.304 148.118L317.162 145.616C314.938 146.636 312.108 147.21 309.043 147.128Z" fill="#A0616A"/>
<path id="Vector_17" d="M346.967 102.688L374.941 128.694L326.215 133.366L314.892 148.281L382.807 150.389C388.934 152.433 395.461 148.467 395.966 142.395C396.136 140.344 382.183 88.316 373.737 83.4858C363.837 77.8247 346.967 102.688 346.967 102.688Z" fill="#6C63FF"/>
</g>
<g id="business-female-person-head">
<path id="Vector_18" d="M366.399 42.2984C366.602 30.486 356.541 20.7557 343.926 20.5652C331.312 20.3747 320.921 29.7962 320.717 41.6087C320.514 53.4212 330.575 63.1515 343.19 63.3419C355.804 63.5324 366.195 54.1109 366.399 42.2984Z" fill="#A0616A"/>
<path id="Vector_19" d="M393.703 108.603C393.131 110.634 388.672 111.682 387.631 114.289C384.317 116.06 386.112 101.593 384.776 100.642C383.744 99.9193 383.467 101.666 383.232 100.163C382.347 94.5253 376.561 95.7845 372.276 94.8746C371.79 93.9892 371.417 93.1282 371.174 92.2914C370.74 90.7805 368.763 90.2525 367.591 91.3654C367.062 90.9267 366.681 89.3751 366.308 87.8236C366.039 86.6944 365.77 85.5653 365.457 84.8505L362.473 78.5467L363.436 83.242C361.484 82.584 359.515 83.2664 358.379 81.0081C356.921 78.108 356.34 74.7125 357.398 71.6662C358.361 68.9043 359.983 63.3723 361.814 58.7908C359.741 60.1961 357.251 61.2196 354.362 61.7314C355.386 59.9118 356.427 58.0596 356.861 56.0369C357.286 54.0142 357.025 51.764 355.655 50.1556C354.527 48.8315 352.861 49.1646 351.456 48.1004C350.363 47.2719 349.417 45.1517 348.758 43.99C351.569 52.7389 353.694 62.032 350.12 70.3828C347.648 76.1666 342.443 80.87 336.197 83.0064C339.519 80.7807 342.764 78.4086 345.253 75.3867C347.917 72.1455 349.652 68.0513 349.122 63.9897C348.29 57.6129 335.659 37.4426 334.106 33.4784C334.956 37.3532 334.627 40.3752 332.388 42.0404C331.807 36.4191 325.266 36.9308 321.701 34.6807C321.701 34.6807 318.942 20.083 325.414 19.9937C328.537 19.9531 331.807 13.0807 334.644 11.8541C339.172 9.89635 341.948 11.2286 346.971 11.3748C351.985 11.5129 356.8 13.5356 359.862 17.248C361.467 19.1895 362.057 17.646 364.468 18.8564C366.759 20.0018 368.303 18.9376 370.897 19.0107C376.093 19.1407 381.133 21.7402 384.048 25.7612C386.963 29.7904 388.758 29.4167 387.604 35.6474C387.587 35.7204 387.587 35.8666 387.604 36.086C388.238 45.899 386.616 55.7364 382.46 64.7695C381.176 67.5477 387.456 70.4151 387.448 73.8838C387.439 77.913 380.508 81.5849 381.15 83.307C382.989 91.601 393.321 89.7569 390.884 103.64C390.684 104.769 394.085 107.246 393.703 108.603Z" fill="#2F2E41"/>
<path id="Vector_20" d="M330.417 83.202C330.608 83.1452 330.799 83.0802 330.99 83.0071C330.747 83.1696 330.513 83.3239 330.27 83.4864L330.417 83.202Z" fill="#2F2E41"/>
<path id="Vector_21" d="M362.594 14.7625C360.109 15.1083 357.585 11.2476 358.996 5.8938C362.071 10.2963 363.642 15.2524 363.889 20.6963L362.232 21.177L362.594 14.7625Z" fill="#6C63FF"/>
<path id="Vector_22" d="M375.29 9.76489C373.595 15.3916 364.983 19.1573 363.462 17.1992L363.288 20.5547L362.223 19.2721C365.312 14.9713 369.522 11.672 375.29 9.76489Z" fill="#6C63FF"/>
</g>
</g>
<path id="business-background-circle" d="M179.288 15.891C183.915 15.891 187.666 12.3786 187.666 8.04594C187.666 3.71326 183.915 0.200928 179.288 0.200928C174.661 0.200928 170.91 3.71326 170.91 8.04594C170.91 12.3786 174.661 15.891 179.288 15.891Z" fill="#E6E7E8"/>
</g>
</svg>
