<svg width="392" height="327" viewBox="0 0 392 327" fill="none" xmlns="http://www.w3.org/2000/svg">
<g id="umkm-card-vector">
<path id="Vector" d="M149.954 15.6982H211.204V16.5726H149.954V15.6982Z" fill="#F2F2F2"/>
<path id="Vector_2" d="M166.579 16.354H167.454V24.4419H166.579V16.354Z" fill="#F2F2F2"/>
<path id="Vector_3" d="M193.266 16.354H194.141V24.4419H193.266V16.354Z" fill="#F2F2F2"/>
<path id="Vector_4" d="M118.891 57.6677H180.141V58.5421H118.891V57.6677Z" fill="#F2F2F2"/>
<path id="Vector_5" d="M162.641 49.7986H163.516V57.8865H162.641V49.7986Z" fill="#F2F2F2"/>
<path id="Vector_6" d="M135.954 49.7986H136.829V57.8865H135.954V49.7986Z" fill="#F2F2F2"/>
<path id="Vector_7" d="M37.5163 77.3411H98.7663V78.2154H37.5163V77.3411Z" fill="#F2F2F2"/>
<path id="Vector_8" d="M81.2663 69.4717H82.1413V77.5596H81.2663V69.4717Z" fill="#F2F2F2"/>
<path id="Vector_9" d="M54.5788 69.4717H55.4538V77.5596H54.5788V69.4717Z" fill="#F2F2F2"/>
<path id="Vector_10" d="M43.6413 280.194H104.891V281.068H43.6413V280.194Z" fill="#F2F2F2"/>
<path id="Vector_11" d="M87.3913 272.324H88.2663V280.412H87.3913V272.324Z" fill="#F2F2F2"/>
<path id="Vector_12" d="M60.7038 272.324H61.5788V280.412H60.7038V272.324Z" fill="#F2F2F2"/>
<path id="Vector_13" d="M148.204 139.858H209.454V140.733H148.204V139.858Z" fill="#F2F2F2"/>
<path id="Vector_14" d="M191.954 131.989H192.829V140.077H191.954V131.989Z" fill="#F2F2F2"/>
<path id="Vector_15" d="M165.266 131.989H166.141V140.077H165.266V131.989Z" fill="#F2F2F2"/>
<path id="Vector_16" d="M128.954 245.219H190.204V246.093H128.954V245.219Z" fill="#F2F2F2"/>
<path id="Vector_17" d="M172.704 237.35H173.579V245.438H172.704V237.35Z" fill="#F2F2F2"/>
<path id="Vector_18" d="M146.016 237.35H146.891V245.438H146.016V237.35Z" fill="#F2F2F2"/>
<path id="Vector_19" d="M30.9538 213.305H92.2038V214.179H30.9538V213.305Z" fill="#F2F2F2"/>
<path id="Vector_20" d="M74.7038 205.436H75.5788V213.523H74.7038V205.436Z" fill="#F2F2F2"/>
<path id="Vector_21" d="M48.0163 205.436H48.8913V213.523H48.0163V205.436Z" fill="#F2F2F2"/>
<g id="umkm-cart">
<path id="Vector_22" d="M246.269 325.229C241.947 325.229 238.443 321.728 238.443 317.409C238.443 313.09 241.947 309.589 246.269 309.589C250.59 309.589 254.094 313.09 254.094 317.409C254.094 321.728 250.59 325.229 246.269 325.229Z" fill="#3F3D56"/>
<path id="Vector_23" d="M155.344 156.173C152.669 156.173 150.5 154.006 150.5 151.332C150.5 148.659 152.669 146.491 155.344 146.491C158.02 146.491 160.189 148.659 160.189 151.332C160.189 154.006 158.02 156.173 155.344 156.173Z" fill="#3F3D56"/>
<path id="Vector_24" d="M222.519 257.83H338.959L364.154 175.536H196.572L196.724 176.02L222.519 257.83ZM338.408 257.085H223.066L197.588 176.281H363.147L338.408 257.085Z" fill="#2F2E41"/>
<path id="Vector_25" d="M231.608 253.548H333.882L356.011 180.563H208.818L208.952 180.993L231.608 253.548Z" fill="#F2F2F2"/>
<path id="Vector_26" d="M194.484 168.184L195.205 167.993L190.287 149.47H161.679V150.215H189.713L194.484 168.184Z" fill="#2F2E41"/>
<path id="Vector_27" d="M204.946 200.485H356.012V201.23H204.946V200.485Z" fill="#2F2E41"/>
<path id="Vector_28" d="M213.597 227.922H347.612V228.667H213.597V227.922Z" fill="#2F2E41"/>
<path id="Vector_29" d="M279.992 175.908H280.738V257.457H279.992V175.908Z" fill="#2F2E41"/>
<path id="Vector_30" d="M246.625 175.885L251.975 257.432L251.231 257.481L245.881 175.934L246.625 175.885Z" fill="#2F2E41"/>
<path id="Vector_31" d="M314.09 175.884L314.834 175.933L309.515 257.482L308.771 257.433L314.09 175.884Z" fill="#2F2E41"/>
<path id="Vector_32" d="M233.599 306.983H337.193V306.238H234.344V270.118H328.484L333.057 260.598L332.385 260.275L328.015 269.373H233.599V306.983Z" fill="#2F2E41"/>
<path id="Vector_33" d="M323.405 325.229C319.083 325.229 315.58 321.728 315.58 317.409C315.58 313.09 319.083 309.589 323.405 309.589C327.727 309.589 331.23 313.09 331.23 317.409C331.23 321.728 327.727 325.229 323.405 325.229Z" fill="#3F3D56"/>
</g>
<path id="Vector_34" d="M131.508 27.0511C131.508 27.0511 125.112 45.2406 129.048 48.039C132.984 50.8374 115.765 73.6909 115.765 73.6909L95.1023 68.0942L106.418 48.9718C106.418 48.9718 107.893 29.8495 107.893 27.0511C107.893 24.2527 131.508 27.0511 131.508 27.0511Z" fill="#A0616A"/>
<path id="Vector_35" opacity="0.1" d="M131.508 27.0511C131.508 27.0511 125.112 45.2406 129.048 48.039C132.984 50.8374 115.765 73.6909 115.765 73.6909L95.1023 68.0942L106.418 48.9718C106.418 48.9718 107.893 29.8495 107.893 27.0511C107.893 24.2527 131.508 27.0511 131.508 27.0511Z" fill="black"/>
<path id="Vector_36" d="M142.243 156.71C142.243 156.71 144.11 180.03 142.243 192.156C140.376 204.282 137.575 237.863 137.575 237.863C137.575 237.863 137.575 301.293 127.307 302.226C117.039 303.159 109.571 304.092 108.638 300.361C107.704 296.629 113.305 294.764 110.505 292.898C107.704 291.033 106.771 284.503 110.505 277.041C114.239 269.578 110.505 194.022 110.505 194.022L92.7687 241.594C92.7687 241.594 90.9017 280.772 89.0348 286.369C87.1678 291.965 90.9017 302.226 84.3674 303.159C77.8331 304.092 70.3653 298.495 66.6314 296.629C62.8975 294.764 72.2322 294.764 70.3653 293.831C68.4983 292.898 62.8975 290.1 64.7645 289.167C66.6314 288.234 68.4984 243.46 68.4984 243.46C68.4984 243.46 73.6324 147.848 80.1668 144.117C86.7011 140.386 90.9017 146.813 90.9017 146.813L142.243 156.71Z" fill="#2F2E41"/>
<path id="Vector_37" d="M125.44 298.495V305.957C125.44 305.957 133.842 326.242 125.44 326.242C117.039 326.242 110.505 328.344 110.505 325.546V300.36L125.44 298.495Z" fill="#2F2E41"/>
<path id="Vector_38" d="M70.3653 298.482V305.944C70.3653 305.944 61.964 326.229 70.3653 326.229C78.7665 326.229 85.3008 328.331 85.3008 325.533V300.347L70.3653 298.482Z" fill="#2F2E41"/>
<path id="Vector_39" d="M123.573 55.0349C123.573 55.0349 118.906 69.0269 111.438 66.2285L103.97 63.4301L90.9017 152.979C90.9017 152.979 101.17 167.903 116.106 158.575C131.041 149.247 123.573 55.0349 123.573 55.0349Z" fill="#152A77"/>
<path id="Vector_40" d="M110.505 52.2366L106.304 43.375C106.304 43.375 81.567 55.035 77.8331 58.7661C74.0992 62.4973 74.0992 68.0941 74.0992 68.0941L80.6335 91.414C80.6335 91.414 78.7666 142.718 78.7666 144.583C78.7666 146.449 72.2322 156.71 76.8996 152.979C81.567 149.247 82.5004 145.516 86.2343 151.113C89.9682 156.71 98.3695 163.239 98.3695 163.239L110.505 52.2366Z" fill="#3F3D56"/>
<g id="umkm-person-head">
<path id="Vector_41" d="M118.439 40.5768C109.159 40.5768 101.637 33.0595 101.637 23.7864C101.637 14.5134 109.159 6.99609 118.439 6.99609C127.719 6.99609 135.242 14.5134 135.242 23.7864C135.242 33.0595 127.719 40.5768 118.439 40.5768Z" fill="#A0616A"/>
<path id="Vector_42" d="M118.081 0.0567774C121.806 -0.0762879 125.792 -0.14211 128.933 1.86374C130.378 2.8704 131.645 4.11019 132.683 5.53238C135.742 9.3964 138.385 14.2582 137.249 19.0524L135.929 18.5381C135.929 19.8178 136.214 21.0815 136.763 22.2378C136.577 21.6978 135.955 22.5707 136.121 23.1169L137.575 27.8825C135.185 27.0071 132.213 28.7795 131.849 31.2968C131.683 25.7615 131.108 19.4143 126.615 16.1732C124.349 14.5387 121.481 14.0397 118.721 13.5966C116.176 13.1879 113.507 12.7981 111.069 13.6355C108.631 14.4729 106.555 16.9646 107.107 19.481C105.983 19.094 104.726 19.877 104.17 20.9275C103.615 21.978 103.586 23.2172 103.569 24.4053C102.37 25.2516 101.007 23.571 100.518 22.1883C99.3719 18.9425 98.3529 15.4874 98.9705 12.1012C99.5881 8.71491 102.349 5.47884 105.794 5.46735C105.376 5.00846 105.153 4.40505 105.172 3.78475L108.011 3.54504C107.29 3.44306 106.627 3.09385 106.136 2.55721C107.276 3.81058 116.238 0.122621 118.081 0.0567774Z" fill="#2F2E41"/>
</g>
<path id="Vector_43" d="M118.906 49.4381C118.906 49.4381 126.505 41.9969 129.24 42.4527C131.975 42.9086 135.708 49.4381 135.708 49.4381C135.708 49.4381 158.112 56.9005 157.178 64.3629C156.245 71.8253 145.977 108.204 145.977 108.204C145.977 108.204 137.575 152.046 145.043 156.71C152.511 161.374 109.571 173.5 108.638 167.903C107.704 162.307 105.837 106.339 108.638 97.9436C111.438 89.5484 118.906 49.4381 118.906 49.4381Z" fill="#3F3D56"/>
<g id="umkm-person-right-hand">
<path id="Vector_44" d="M77.8331 119.398L80.6335 145.516C80.6335 145.516 97.436 160.441 93.7021 161.374C89.9682 162.307 88.1013 158.575 88.1013 158.575C88.1013 158.575 81.567 165.105 77.8331 161.374C74.0992 157.643 64.7644 122.196 64.7644 122.196L77.8331 119.398Z" fill="#A0616A"/>
<path id="Vector_45" d="M86.2343 64.363H74.6919C74.6919 64.363 66.6314 99.8093 65.6979 103.54C64.7644 107.272 62.8975 124.995 63.831 124.995C64.7645 124.995 83.4339 121.264 83.4339 124.062L86.2343 64.363Z" fill="#3F3D56"/>
</g>
<path id="umkm-paper" d="M86.625 152.14H130.812C135.125 132.318 135.485 113.166 130.812 94.8687H86.625C93.7559 112.837 94.2015 131.857 86.625 152.14Z" fill="#F2F2F2"/>
<g id="umkm-person-right-hand_2">
<path id="Vector_46" d="M148.777 127.793L135.708 133.39C135.708 133.39 110.505 137.121 110.505 126.86C110.505 116.6 135.708 122.196 135.708 122.196L144.11 119.512L148.777 127.793Z" fill="#A0616A"/>
<path id="Vector_47" d="M145.977 58.7661L157.178 61.5645L165.58 111.003C165.58 111.003 168.38 124.062 163.713 124.995C159.045 125.927 145.977 133.39 145.977 133.39C145.977 133.39 144.11 119.398 140.376 119.398L149.711 111.936L144.11 79.2877L145.977 58.7661Z" fill="#3F3D56"/>
</g>
<path id="Vector_48" d="M304.391 154.285H365.641V155.16H304.391V154.285Z" fill="#F2F2F2"/>
<path id="Vector_49" d="M348.141 146.416H349.016V154.504H348.141V146.416Z" fill="#F2F2F2"/>
<path id="Vector_50" d="M321.454 146.416H322.329V154.504H321.454V146.416Z" fill="#F2F2F2"/>
<path id="Vector_51" d="M282.954 24.8792H344.204V25.7535H282.954V24.8792Z" fill="#F2F2F2"/>
<path id="Vector_52" d="M299.579 25.5349H300.454V33.6228H299.579V25.5349Z" fill="#F2F2F2"/>
<path id="Vector_53" d="M326.266 25.5349H327.141V33.6228H326.266V25.5349Z" fill="#F2F2F2"/>
<path id="Vector_54" d="M221.266 111.004H282.516V111.879H221.266V111.004Z" fill="#F2F2F2"/>
<path id="Vector_55" d="M237.891 111.66H238.766V119.748H237.891V111.66Z" fill="#F2F2F2"/>
<path id="Vector_56" d="M264.579 111.66H265.454V119.748H264.579V111.66Z" fill="#F2F2F2"/>
<path id="Vector_57" d="M325.391 110.567H386.641V111.441H325.391V110.567Z" fill="#F2F2F2"/>
<path id="Vector_58" d="M342.016 111.223H342.891V119.311H342.016V111.223Z" fill="#F2F2F2"/>
<path id="Vector_59" d="M368.704 111.223H369.579V119.311H368.704V111.223Z" fill="#F2F2F2"/>
<path id="Vector_60" d="M251.891 66.8486H313.141V67.723H251.891V66.8486Z" fill="#F2F2F2"/>
<path id="Vector_61" d="M295.641 58.9792H296.516V67.0671H295.641V58.9792Z" fill="#F2F2F2"/>
<path id="Vector_62" d="M268.954 58.9792H269.829V67.0671H268.954V58.9792Z" fill="#F2F2F2"/>
</g>
</svg>
